<?xml version="1.0" encoding="utf-8"?>
<!-- Generator: Adobe Illustrator 19.0.0, SVG Export Plug-In . SVG Version: 6.00 Build 0)  -->
<svg version="1.1" id="レイヤー_1" xmlns="http://www.w3.org/2000/svg" xmlns:xlink="http://www.w3.org/1999/xlink" x="0px"
	 y="0px" viewBox="0 0 407 52" style="enable-background:new 0 0 407 52;" xml:space="preserve">
<g id="XMLID_1_">
	<path id="XMLID_3_" d="M40.6,14.9h-1.7c0.4-1.8,0.5-2.9,0.5-3.4c0-0.7-0.2-1.2-0.7-1.5c-0.5-0.3-1.4-0.5-2.7-0.5l-2,0l-0.7,0h-6.2
		c-0.1,0.5-0.5,1.7-1,3.7c-1.1,4-2,7.4-2.6,9.9h6.1c1.5,0,2.4-0.1,2.9-0.4c0.4-0.3,0.8-1,1.1-2.2h1.7c-0.6,2.6-1.2,5.4-1.7,8.2h-1.7
		c0.1-1.2,0.2-1.9,0.2-2.1c0-0.5-0.3-0.9-0.8-1.1c-0.3-0.1-1.1-0.2-2.4-0.3h-6c-0.6,2.9-1.4,6-2.4,9.4c-1,3.4-1.8,5.9-2.5,7.8
		c1.7,0.3,3.1,0.4,4.5,0.4c0.9,0,1.7-0.1,2.5-0.2l-0.5,1.8c-0.6,0.1-1.2,0.1-1.7,0.1c-0.5,0-1.9-0.1-4.3-0.2
		c-1.4-0.1-2.7-0.2-3.7-0.2c-2,0-4.2,0.2-6.5,0.6l0.4-1.7c1.9-0.4,3.1-0.8,3.7-1.3s1-1,1.4-1.6c0.6-1.3,1.9-5.2,3.6-11.8l4.8-18.7
		c-2.8,0.1-5.2,0.7-7.3,1.9c-2.1,1.2-3.8,2.7-5,4.7c-1.2,2-1.9,4-1.9,6c0,0.8,0.1,1.6,0.3,2.5c0.1,0.5,0.4,1.2,0.9,2.1
		c0.6,1.1,0.9,1.9,0.9,2.3S10,29.7,9.6,30c-0.4,0.3-0.8,0.5-1.4,0.5c-0.8,0-1.5-0.4-2-1.3c-0.7-1.2-1.1-2.8-1.1-5
		c0-4.2,1.6-8,4.9-11.6c3.3-3.5,7.6-5.3,12.9-5.3h12c1.3,0,2.8-0.1,4.4-0.3c0.5,0,1.5-0.3,3.1-0.7C41.4,10.9,40.8,13.7,40.6,14.9z"
		/>
	<path id="XMLID_5_" d="M65.5,18.5h4.4L67,29.5c-1.7,6.3-2.6,10-2.6,10.8c0,0.4,0.1,0.7,0.3,0.9c0.2,0.2,0.4,0.3,0.6,0.3
		c0.4,0,0.8-0.2,1.3-0.5c0.7-0.5,2-1.7,3.9-3.6l1,1.2c-4.2,4.4-7.3,6.5-9.3,6.5c-0.7,0-1.2-0.3-1.7-0.8c-0.5-0.5-0.7-1.2-0.7-2.2
		c0-1.1,0.2-2.5,0.7-4.3c-1.9,2.1-4.1,4-6.9,5.6c-1.8,1.1-3.4,1.6-4.7,1.6c-0.7,0-1.3-0.2-1.7-0.7c-0.4-0.5-0.6-1.2-0.6-2.3
		c0-0.8,0.1-1.7,0.3-2.6c0.3-1.3,1-4,2.1-7.9c1.4-5,2.1-8,2.1-9c0-0.6-0.2-0.9-0.6-0.9c-0.4,0-0.9,0.2-1.5,0.6
		c-0.6,0.4-1.8,1.3-3.3,2.8l-1.4-1.1c2.8-2.5,4.9-4.1,6.4-4.9s2.7-1.2,3.5-1.2c0.5,0,0.9,0.2,1.2,0.5s0.5,0.9,0.5,1.7
		c0,1.4-0.8,5-2.3,10.6c-1.3,5.1-2,8-2,8.7c0,0.4,0.1,0.8,0.4,1.1c0.3,0.3,0.6,0.5,0.9,0.5c1.2,0,2.8-1,5-2.9
		c2.1-1.9,3.5-4.1,4.2-6.6L65.5,18.5z"/>
	<path id="XMLID_7_" d="M83.4,44h-4.7l2.2-8.4c1.1-4.1,2-8,2.8-11.8c0.2-0.9,0.3-1.5,0.3-1.7c0-0.5-0.2-0.8-0.7-0.8
		c-0.3,0-0.8,0.2-1.4,0.6c-0.6,0.4-1.8,1.5-3.5,3.2l-1-1.1c2-2.1,4-3.8,6-4.8c2-1.1,3.5-1.6,4.6-1.6c0.4,0,0.7,0.1,0.9,0.3
		c0.2,0.2,0.3,0.4,0.3,0.7c0,0.3-0.1,1-0.4,2.2l-1.4,5.6c2.1-3.3,4.5-6.2,7.1-8.5c1.3-1.1,2.3-1.7,3.2-1.7c0.6,0,1.1,0.2,1.6,0.6
		c0.4,0.4,0.6,0.9,0.6,1.4c0,0.6-0.2,1-0.6,1.4c-0.4,0.4-1.4,0.9-3,1.4c-1.5,0.5-2.8,1.1-3.8,1.9c-1,0.7-2,1.8-3.2,3.3
		c-1.2,1.5-2,2.8-2.4,3.9s-1.2,3.7-2.1,7.8L83.4,44z"/>
	<path id="XMLID_9_" d="M101.6,25.1l-1.1-1.1c2.7-2.6,4.8-4.3,6.4-5.1c1.6-0.8,2.9-1.3,4.1-1.3c0.4,0,0.8,0.1,1,0.3s0.4,0.4,0.4,0.7
		c0,0.2-0.1,0.5-0.2,1l-1.4,6.3c2.1-2.4,4.8-4.6,8-6.6c1.7-1.1,3.1-1.6,4.2-1.6c0.8,0,1.4,0.3,1.9,0.8c0.5,0.5,0.7,1.3,0.7,2.3
		c0,0.6-0.1,1.4-0.3,2.2c-0.3,1.4-1.2,4.3-2.6,8.8c-1.3,4.3-2,7.1-2,8.5c0,0.4,0.1,0.7,0.2,1c0.1,0.2,0.3,0.3,0.5,0.3
		c0.6,0,1.6-0.6,2.8-1.8c0.9-0.8,1.8-1.6,2.8-2.3l0.8,1.1c-1.9,2.1-3.9,3.8-6,5.1c-1.3,0.8-2.4,1.2-3.3,1.2c-0.8,0-1.4-0.3-1.8-0.9
		c-0.4-0.6-0.7-1.5-0.7-2.8c0-1.9,1.2-6.5,3.5-13.8c0.7-2.6,1.1-4.2,1.1-4.6c0-0.6-0.4-1-1.2-1c-0.8,0-1.9,0.4-3.2,1.3
		c-2,1.3-3.6,2.8-4.9,4.6c-0.8,1.1-1.5,2.9-2.1,5.4L106.7,44h-4.7c0.9-3.1,1.6-6.1,2.3-9l2.8-11.9c0.1-0.5,0.2-0.8,0.2-1
		c0-0.6-0.2-0.8-0.6-0.8c-0.3,0-0.8,0.2-1.4,0.7C103.9,22.8,102.7,23.8,101.6,25.1z"/>
	<path id="XMLID_11_" d="M135,25l-1.4-1.1c2.1-2.3,4-3.9,5.7-4.9s3.2-1.5,4.4-1.5c0.7,0,1.2,0.1,1.5,0.4c0.4,0.3,0.5,0.7,0.5,1.2
		c0,0.6-0.7,3.2-2,7.7c-2.2,7.4-3.3,11.9-3.3,13.4c0,0.3,0.1,0.5,0.2,0.7c0.1,0.2,0.3,0.3,0.5,0.3c0.7,0,2.4-1.3,5.1-3.9l1.2,1.2
		c-2.9,2.7-4.9,4.4-6.3,5.2s-2.4,1.1-3.2,1.1c-0.7,0-1.3-0.2-1.7-0.7c-0.4-0.5-0.6-1.1-0.6-1.9c0-2.6,1.6-9,4.7-19.1
		c0.1-0.5,0.2-0.9,0.2-1.3c0-0.4-0.2-0.6-0.6-0.6c-0.4,0-0.9,0.2-1.4,0.5C138,22.1,136.8,23.2,135,25z M147.2,4.3
		c0.6,0,1.2,0.2,1.6,0.6c0.4,0.4,0.6,1,0.6,1.6c0,0.9-0.3,1.7-1,2.4c-0.6,0.7-1.3,1-2.1,1c-0.6,0-1.1-0.2-1.6-0.7
		c-0.4-0.4-0.6-1-0.6-1.7c0-0.9,0.3-1.7,0.9-2.4C145.7,4.6,146.4,4.3,147.2,4.3z"/>
	<path id="XMLID_14_" d="M161.9,12.9l5-1.9l-2.2,8.7h6.5l-0.5,2.2h-6.5l-2.7,10.5c-0.9,3.1-1.3,5.3-1.3,6.6c0,0.6,0.1,1,0.4,1.2
		c0.2,0.3,0.6,0.4,1,0.4c0.6,0,1.6-0.4,3-1.2c1.8-1,3.4-2.2,5-3.5l1.2,1.4c-4.6,3.4-7.6,5.5-9.2,6.3c-1.5,0.8-2.8,1.2-3.7,1.2
		c-0.8,0-1.4-0.3-1.8-0.8c-0.4-0.6-0.7-1.5-0.7-2.8c0-1.5,0.4-3.8,1.2-6.9l3.2-12.4h-5.1l0.6-2.2h5.1L161.9,12.9z"/>
	<path id="XMLID_16_" d="M198.6,18.5h4.4l-2.9,10.9c-1.7,6.3-2.6,10-2.6,10.8c0,0.4,0.1,0.7,0.3,0.9c0.2,0.2,0.4,0.3,0.6,0.3
		c0.4,0,0.8-0.2,1.3-0.5c0.7-0.5,2-1.7,3.9-3.6l1,1.2c-4.2,4.4-7.3,6.5-9.3,6.5c-0.7,0-1.2-0.3-1.7-0.8c-0.5-0.5-0.7-1.2-0.7-2.2
		c0-1.1,0.2-2.5,0.7-4.3c-1.9,2.1-4.1,4-6.9,5.6c-1.8,1.1-3.4,1.6-4.7,1.6c-0.7,0-1.3-0.2-1.7-0.7c-0.4-0.5-0.6-1.2-0.6-2.3
		c0-0.8,0.1-1.7,0.3-2.6c0.3-1.3,1-4,2.1-7.9c1.4-5,2.1-8,2.1-9c0-0.6-0.2-0.9-0.6-0.9c-0.4,0-0.9,0.2-1.5,0.6
		c-0.6,0.4-1.8,1.3-3.3,2.8l-1.4-1.1c2.8-2.5,4.9-4.1,6.4-4.9s2.7-1.2,3.5-1.2c0.5,0,0.9,0.2,1.2,0.5s0.5,0.9,0.5,1.7
		c0,1.4-0.8,5-2.3,10.6c-1.3,5.1-2,8-2,8.7c0,0.4,0.1,0.8,0.4,1.1c0.3,0.3,0.6,0.5,0.9,0.5c1.2,0,2.8-1,5-2.9
		c2.1-1.9,3.5-4.1,4.2-6.6L198.6,18.5z"/>
	<path id="XMLID_18_" d="M216.5,44h-4.7l2.2-8.4c1.1-4.1,2-8,2.8-11.8c0.2-0.9,0.3-1.5,0.3-1.7c0-0.5-0.2-0.8-0.7-0.8
		c-0.3,0-0.8,0.2-1.4,0.6c-0.6,0.4-1.8,1.5-3.5,3.2l-1-1.1c2-2.1,4-3.8,6-4.8c2-1.1,3.5-1.6,4.6-1.6c0.4,0,0.7,0.1,0.9,0.3
		c0.2,0.2,0.3,0.4,0.3,0.7c0,0.3-0.1,1-0.4,2.2l-1.4,5.6c2.1-3.3,4.5-6.2,7.1-8.5c1.3-1.1,2.3-1.7,3.2-1.7c0.6,0,1.1,0.2,1.6,0.6
		c0.4,0.4,0.6,0.9,0.6,1.4c0,0.6-0.2,1-0.6,1.4c-0.4,0.4-1.4,0.9-3,1.4c-1.5,0.5-2.8,1.1-3.8,1.9c-1,0.7-2,1.8-3.2,3.3
		c-1.2,1.5-2,2.8-2.4,3.9s-1.2,3.7-2.1,7.8L216.5,44z"/>
	<path id="XMLID_20_" d="M250.1,36.2l1,1.4c-5.1,4.9-9.5,7.3-13.1,7.3c-1.5,0-2.6-0.5-3.4-1.5s-1.2-2.6-1.2-4.8
		c0-4.5,1.4-8.9,4.1-13.3c3-5,6.7-7.5,10.9-7.5c1.5,0,2.6,0.4,3.4,1.1c0.8,0.7,1.2,1.8,1.2,3c0,1.4-0.5,2.7-1.4,4s-2.6,2.7-5,4.1
		c-1.2,0.7-3.8,1.9-7.8,3.7c-0.2,1.1-0.3,2.2-0.3,3.2c0,1.5,0.2,2.5,0.7,3.1c0.5,0.6,1.2,0.9,2,0.9c0.9,0,1.8-0.2,2.8-0.7
		C245.5,39.4,247.5,38.1,250.1,36.2z M239.2,31.6c3.4-1.5,5.9-3.1,7.6-4.8c1.1-1.2,1.7-2.4,1.7-3.6c0-0.9-0.2-1.6-0.7-2.1
		s-1.1-0.8-1.8-0.8c-0.8,0-1.5,0.3-2.3,0.9c-1,0.8-1.8,1.9-2.5,3.5C240.3,26.9,239.6,29.3,239.2,31.6z"/>
	<path id="XMLID_23_" d="M260,29.6h14.5l-0.8,3.1h-14.6L260,29.6z"/>
	<path id="XMLID_25_" d="M294.8,17.7c1.9,0,3.3,0.4,4.3,1.1c1,0.7,1.5,1.5,1.5,2.5c0,0.6-0.2,1.1-0.6,1.5c-0.4,0.4-0.9,0.6-1.5,0.6
		c-0.4,0-0.7-0.1-1-0.3c-0.3-0.2-0.7-0.6-1.3-1.3c-1-1.4-2-2-3-2c-0.9,0-1.6,0.3-2.3,1s-1,1.5-1,2.4c0,0.9,0.2,1.7,0.6,2.5
		c0.4,0.8,1.5,2.1,3.2,3.9c2.3,2.5,3.5,4.8,3.5,7c0,2.2-0.9,4.1-2.8,5.8s-4.3,2.5-7.3,2.5c-2.5,0-4.3-0.5-5.5-1.5
		c-1.2-1-1.8-2.3-1.8-3.7c0-0.7,0.2-1.3,0.7-1.8c0.5-0.5,1-0.7,1.7-0.7c0.6,0,1.1,0.2,1.5,0.6c0.4,0.4,0.6,0.8,0.6,1.4
		c0,0.2,0,0.5,0,0.8c0,0.3,0,0.5,0,0.7c0,0.7,0.3,1.3,0.9,1.8c0.6,0.5,1.3,0.7,2.3,0.7c1.1,0,2.1-0.2,3-0.6c0.9-0.4,1.5-1,2-1.7
		c0.5-0.8,0.7-1.6,0.7-2.3c0-0.7-0.2-1.5-0.7-2.2c-0.4-0.7-1.5-2-3-3.7c-2.2-2.4-3.3-4.7-3.3-7c0-2,0.8-3.8,2.5-5.4
		C290.2,18.5,292.3,17.7,294.8,17.7z"/>
	<path id="XMLID_27_" d="M314.1,12.9l5-1.9l-2.2,8.7h6.5l-0.5,2.2h-6.5l-2.7,10.5c-0.9,3.1-1.3,5.3-1.3,6.6c0,0.6,0.1,1,0.4,1.2
		c0.2,0.3,0.6,0.4,1,0.4c0.6,0,1.6-0.4,3-1.2c1.8-1,3.4-2.2,5-3.5l1.2,1.4c-4.6,3.4-7.6,5.5-9.2,6.3c-1.5,0.8-2.8,1.2-3.7,1.2
		c-0.8,0-1.4-0.3-1.8-0.8c-0.4-0.6-0.7-1.5-0.7-2.8c0-1.5,0.4-3.8,1.2-6.9l3.2-12.4h-5.1l0.6-2.2h5.1L314.1,12.9z"/>
	<path id="XMLID_29_" d="M345.2,17.7c2,0,3.7,0.8,5.1,2.4c1.4,1.6,2,3.9,2,6.8c0,4.6-1.6,8.8-4.9,12.5c-3.3,3.7-6.7,5.5-10.3,5.5
		c-2.2,0-4-0.7-5.4-2.2c-1.4-1.5-2-3.4-2-6c0-4.4,1.3-8.4,3.8-12.1C336.6,20,340.5,17.7,345.2,17.7z M342.5,20.1
		c-1.8,0-3.5,1.3-5.1,3.8s-2.5,6-2.5,10.5c0,2.7,0.5,4.8,1.5,6.4c0.8,1.1,1.8,1.7,3,1.7c1.8,0,3.3-1.1,4.8-3.3
		c1.8-2.8,2.8-6.3,2.8-10.5c0-3.1-0.4-5.4-1.3-6.7C344.9,20.7,343.8,20.1,342.5,20.1z"/>
	<path id="XMLID_32_" d="M364.9,44h-4.7l2.2-8.4c1.1-4.1,2-8,2.8-11.8c0.2-0.9,0.3-1.5,0.3-1.7c0-0.5-0.2-0.8-0.7-0.8
		c-0.3,0-0.8,0.2-1.4,0.6c-0.6,0.4-1.8,1.5-3.5,3.2l-1-1.1c2-2.1,4-3.8,6-4.8c2-1.1,3.5-1.6,4.6-1.6c0.4,0,0.7,0.1,0.9,0.3
		c0.2,0.2,0.3,0.4,0.3,0.7c0,0.3-0.1,1-0.4,2.2l-1.4,5.6c2.1-3.3,4.5-6.2,7.1-8.5c1.3-1.1,2.3-1.7,3.2-1.7c0.6,0,1.1,0.2,1.6,0.6
		c0.4,0.4,0.6,0.9,0.6,1.4c0,0.6-0.2,1-0.6,1.4c-0.4,0.4-1.4,0.9-3,1.4c-1.5,0.5-2.8,1.1-3.8,1.9c-1,0.7-2,1.8-3.2,3.3
		c-1.2,1.5-2,2.8-2.4,3.9s-1.2,3.7-2.1,7.8L364.9,44z"/>
	<path id="XMLID_34_" d="M398.5,36.2l1,1.4c-5.1,4.9-9.5,7.3-13.1,7.3c-1.5,0-2.6-0.5-3.4-1.5s-1.2-2.6-1.2-4.8
		c0-4.5,1.4-8.9,4.1-13.3c3-5,6.7-7.5,10.9-7.5c1.5,0,2.6,0.4,3.4,1.1c0.8,0.7,1.2,1.8,1.2,3c0,1.4-0.5,2.7-1.4,4s-2.6,2.7-5,4.1
		c-1.2,0.7-3.8,1.9-7.8,3.7c-0.2,1.1-0.3,2.2-0.3,3.2c0,1.5,0.2,2.5,0.7,3.1c0.5,0.6,1.2,0.9,2,0.9c0.9,0,1.8-0.2,2.8-0.7
		C393.9,39.4,395.9,38.1,398.5,36.2z M387.6,31.6c3.4-1.5,5.9-3.1,7.6-4.8c1.1-1.2,1.7-2.4,1.7-3.6c0-0.9-0.2-1.6-0.7-2.1
		s-1.1-0.8-1.8-0.8c-0.8,0-1.5,0.3-2.3,0.9c-1,0.8-1.8,1.9-2.5,3.5C388.7,26.9,388,29.3,387.6,31.6z"/>
</g>
</svg>
