<?xml version="1.0" encoding="utf-8"?>
<!-- Generator: Adobe Illustrator 19.0.0, SVG Export Plug-In . SVG Version: 6.00 Build 0)  -->
<svg version="1.1" id="レイヤー_1" xmlns="http://www.w3.org/2000/svg" xmlns:xlink="http://www.w3.org/1999/xlink" x="0px"
	 y="0px" viewBox="0 0 505 58" style="enable-background:new 0 0 505 58;" xml:space="preserve">
<g id="XMLID_2_">
	<path id="XMLID_3_" d="M35,6v4.6H18.3V26h14.2v4.6H18.3V52H4.9V6H35z"/>
	<path id="XMLID_5_" d="M73.9,17.2V52H61.6v-5.4c-2.8,4-6.5,6.1-10.9,6.1c-6,0-9-2.9-9-8.8V18c4.1-0.2,8.2-0.5,12.3-0.9v26.4
		c0,2.3,0.7,3.4,2.1,3.4c3.7,0,5.5-4,5.5-11.9V18C65.7,17.9,69.8,17.6,73.9,17.2z"/>
	<path id="XMLID_7_" d="M108,30.4h-8.4c0.3-1.3,0.6-2.3,0.8-2.9c0.3-0.9,0.5-1.8,0.5-2.5c0-1.4-0.5-2.2-1.5-2.2
		c-0.8,0-1.5,0.9-2.3,2.8c-0.7,1.9-1.1,3.9-1.1,6V52H83.6V18l2.4,0c2.8,0,6.1-0.3,9.9-0.9v5.6c2-3.7,4.4-5.6,7.3-5.6
		c4,0,5.9,2.2,5.9,6.5c0,1.1-0.2,2.5-0.6,3.9C108.5,28.2,108.3,29.2,108,30.4z"/>
	<path id="XMLID_9_" d="M148,52h-12.3V27.1c0-2.5-0.7-3.8-2.1-3.8c-1.4,0-2.7,1-3.7,3c-1.1,2-1.6,4.4-1.6,7.1V52h-12.3V18
		c4.2,0,8.3-0.3,12.3-0.8v6.4c3.1-4.2,6.8-6.3,11.2-6.3c5.7,0,8.6,2.9,8.6,8.7V52z"/>
	<path id="XMLID_11_" d="M157.8,52V18.1c3.8,0,7.9-0.3,12.3-0.9V52H157.8z M164,4.9c3.8,0,5.7,1.5,5.7,4.4s-1.9,4.4-5.7,4.4
		c-3.8,0-5.7-1.5-5.7-4.4S160.2,4.9,164,4.9z"/>
	<path id="XMLID_14_" d="M198.1,18.1v3.8h-5.5v24c0,1.5,0.5,2.3,1.4,2.3c0.7,0,1.1-0.5,1.2-1.5l3.5,0.3c-1,3.5-4,5.3-9.2,5.3
		c-6.2,0-9.3-2.6-9.3-7.9V21.9h-4.1v-3.8h4.1v-6c4.2-1.2,8.3-2.9,12.3-5.1v11.1H198.1z"/>
	<path id="XMLID_16_" d="M237.1,17.2V52h-12.3v-5.4c-2.8,4-6.5,6.1-10.9,6.1c-6,0-9-2.9-9-8.8V18c4.1-0.2,8.2-0.5,12.3-0.9v26.4
		c0,2.3,0.7,3.4,2.1,3.4c3.7,0,5.5-4,5.5-11.9V18C228.9,17.9,233,17.6,237.1,17.2z"/>
	<path id="XMLID_18_" d="M271.2,30.4h-8.4c0.3-1.3,0.6-2.3,0.8-2.9c0.3-0.9,0.5-1.8,0.5-2.5c0-1.4-0.5-2.2-1.5-2.2
		c-0.8,0-1.5,0.9-2.3,2.8c-0.7,1.9-1.1,3.9-1.1,6V52h-12.3V18l2.4,0c2.8,0,6.1-0.3,9.9-0.9v5.6c2-3.7,4.4-5.6,7.3-5.6
		c4,0,5.9,2.2,5.9,6.5c0,1.1-0.2,2.5-0.6,3.9C271.7,28.2,271.4,29.2,271.2,30.4z"/>
	<path id="XMLID_20_" d="M303.3,39.6l5,1.4c-0.5,7.8-5.1,11.8-13.9,11.8c-11.3,0-17-5.6-17-16.9c0-5.5,1.5-10,4.5-13.5
		c3-3.5,6.9-5.3,11.6-5.3c9.8,0,14.7,6.3,14.7,19h-17.9c0,8.9,2.3,13.3,6.8,13.3c4.2,0,6.3-2.5,6.3-7.5
		C303.4,41.2,303.4,40.4,303.3,39.6z M290.3,32.3h7.3c0-7.9-1.2-11.9-3.6-11.9c-2.2,0-3.4,2.9-3.6,8.8L290.3,32.3z"/>
	<path id="XMLID_23_" d="M329.9,30v8.9h-16.6V30H329.9z"/>
	<path id="XMLID_25_" d="M363.1,26.8l-6,1c0-5.1-2.4-7.6-7.1-7.6c-2.9,0-4.3,1.2-4.3,3.6c0,1.8,2.5,3.6,7.5,5.7
		c7.6,3.1,11.5,7.1,11.5,11.9c0,7.7-4.9,11.5-14.6,11.5c-10.3,0-15.4-3.8-15.4-11.5l6.3-1.3c-0.1,0.7-0.1,1.4-0.1,2.1
		c0,2,0.8,3.7,2.5,5.2c1.7,1.5,3.6,2.2,5.8,2.2c3,0,4.4-1.3,4.4-3.8c0-1.7-2.4-3.5-7.2-5.6c-7.2-3.1-10.8-7.1-10.8-11.9
		c0-3.2,1.4-5.8,4.1-7.9c2.8-2.1,6.3-3.1,10.6-3.1C358.1,17.2,362.3,20.4,363.1,26.8z"/>
	<path id="XMLID_27_" d="M390.6,18.1v3.8h-5.5v24c0,1.5,0.5,2.3,1.4,2.3c0.7,0,1.1-0.5,1.2-1.5l3.5,0.3c-1,3.5-4,5.3-9.2,5.3
		c-6.2,0-9.3-2.6-9.3-7.9V21.9h-4.1v-3.8h4.1v-6c4.2-1.2,8.3-2.9,12.3-5.1v11.1H390.6z"/>
	<path id="XMLID_29_" d="M412.5,17.2c11.2,0,16.8,5.9,16.8,17.8s-5.6,17.8-16.8,17.8c-11.3,0-16.9-5.9-16.9-17.8
		S401.3,17.2,412.5,17.2z M412.5,20.2c-2.7,0-4.1,4.9-4.1,14.8c0,9.9,1.4,14.8,4.1,14.8c2.7,0,4.1-4.9,4.1-14.8
		C416.6,25.1,415.2,20.2,412.5,20.2z"/>
	<path id="XMLID_32_" d="M461.8,30.4h-8.4c0.3-1.3,0.5-2.3,0.8-2.9c0.3-0.9,0.5-1.8,0.5-2.5c0-1.4-0.5-2.2-1.5-2.2
		c-0.8,0-1.5,0.9-2.3,2.8s-1.1,3.9-1.1,6V52h-12.3V18l2.4,0c2.8,0,6.1-0.3,9.9-0.9v5.6c2-3.7,4.4-5.6,7.3-5.6c4,0,5.9,2.2,5.9,6.5
		c0,1.1-0.2,2.5-0.6,3.9C462.3,28.2,462.1,29.2,461.8,30.4z"/>
	<path id="XMLID_34_" d="M493.9,39.6l5,1.4c-0.5,7.8-5.1,11.8-13.9,11.8c-11.3,0-17-5.6-17-16.9c0-5.5,1.5-10,4.5-13.5
		s6.9-5.3,11.6-5.3c9.8,0,14.7,6.3,14.7,19h-17.9c0,8.9,2.3,13.3,6.8,13.3c4.2,0,6.3-2.5,6.3-7.5C494,41.2,494,40.4,493.9,39.6z
		 M480.9,32.3h7.3c0-7.9-1.2-11.9-3.6-11.9c-2.2,0-3.4,2.9-3.6,8.8L480.9,32.3z"/>
</g>
</svg>
